<svg width="44.000000" height="44.000000" viewBox="0 0 44 44" fill="none" xmlns="http://www.w3.org/2000/svg" xmlns:xlink="http://www.w3.org/1999/xlink">
  <desc>
    Created with Pixso.
  </desc>
  <defs />
  <rect id="Logomark" rx="0.000000" width="43.568626" height="43.568626" transform="translate(0.215686 0.215686)" fill="#FFFFFF" fill-opacity="0" />
  <path id="Isometric square"
        d="M13.27 20.31C14.09 17.24 17.25 14.09 20.32 13.27L39.45 8.14C42.51 7.32 44.34 9.14 43.51 12.21L38.39 31.34C37.56 34.41 34.41 37.56 31.34 38.38L12.21 43.51C9.14 44.33 7.32 42.51 8.15 39.44L13.27 20.31Z"
        fill="#B8B8FF" fill-opacity="1.000000" fill-rule="nonzero" />
  <path id="Isometric square"
        d="M5.6 12.64C6.43 9.58 9.58 6.42 12.65 5.6L31.78 0.47C34.85 -0.35 36.67 1.47 35.84 4.54L30.72 23.67C29.9 26.74 26.74 29.89 23.67 30.71L4.54 35.84C1.48 36.66 -0.34 34.84 0.48 31.77L5.6 12.64Z"
        fill="#5051F9" fill-opacity="1.000000" fill-rule="nonzero" />
</svg>